<svg width="168" height="68" viewBox="0 0 168 68" fill="none" xmlns="http://www.w3.org/2000/svg">
<path d="M11.6401 5.92238L10.8948 14.3384C11.1481 14.3517 11.3668 14.3584 11.5508 14.3584C12.3694 14.3584 12.9561 14.1664 13.3081 13.777C13.6614 13.389 13.8908 12.5824 14.0001 11.3557L14.2401 8.63971C14.3401 7.50905 14.2214 6.77438 13.8841 6.43305C13.5468 6.09305 12.7988 5.92238 11.6401 5.92238ZM3.21475 0.263715H12.2041C14.6348 0.263715 16.4881 0.447715 17.7628 0.814381C19.0374 1.18238 19.9734 1.71438 20.5694 2.40771C21.1654 3.10371 21.5348 3.94505 21.6814 4.93171C21.8281 5.91838 21.8081 7.44771 21.6254 9.51705L21.3708 12.397C21.1841 14.509 20.8214 16.049 20.2828 17.0144C19.7454 17.9824 18.8494 18.725 17.5948 19.241C16.3414 19.7597 14.7388 20.017 12.7881 20.017H10.3921L9.21342 33.3384H0.288086L3.21475 0.263715Z" fill="white"/>
<path d="M11.18 14.0891C11.316 14.0944 11.44 14.0971 11.5493 14.0971C12.2893 14.0971 12.8147 13.9291 13.1133 13.6011C13.328 13.3651 13.6093 12.7811 13.7373 11.3331L13.9787 8.61708C14.0933 7.31574 13.8893 6.81174 13.6973 6.61708C13.5133 6.43308 13.048 6.21441 11.88 6.18641L11.18 14.0891ZM11.5493 14.6211C11.3627 14.6211 11.1387 14.6157 10.88 14.6011L10.6093 14.5864L11.4 5.65974H11.64C12.8827 5.65974 13.6787 5.85174 14.0707 6.24774C14.468 6.65041 14.6093 7.43974 14.5013 8.66241L14.2613 11.3797C14.1467 12.6757 13.8987 13.5171 13.5027 13.9531C13.1 14.3957 12.4427 14.6211 11.5493 14.6211ZM0.574667 33.0744H8.97333L10.152 19.7557H12.788C14.6947 19.7557 16.2787 19.5011 17.4947 18.9997C18.6853 18.5064 19.5467 17.7971 20.0533 16.8877C20.5707 15.9557 20.9253 14.4384 21.108 12.3757L21.3627 9.49441C21.544 7.45308 21.564 5.93174 21.4213 4.96908C21.2827 4.03708 20.9293 3.23174 20.3693 2.57841C19.8107 1.92774 18.9093 1.41841 17.6893 1.06641C16.444 0.707742 14.5987 0.52641 12.204 0.52641H3.45467L0.574667 33.0744ZM9.45333 33.6011H0L2.97467 0.0010752H12.204C14.648 0.0010752 16.5427 0.189078 17.836 0.561078C19.1547 0.943744 20.1413 1.50641 20.768 2.23708C21.3933 2.96641 21.788 3.85974 21.9413 4.89308C22.0893 5.89441 22.0707 7.45841 21.8867 9.54108L21.6307 12.4211C21.4427 14.5597 21.0667 16.1477 20.512 17.1424C19.9467 18.1584 18.9987 18.9477 17.6947 19.4851C16.4147 20.0117 14.764 20.2811 12.788 20.2811H10.632L9.45333 33.6011Z" fill="white"/>
<path d="M34.3782 13.7059C34.5009 12.3166 34.5009 11.4419 34.3769 11.0793C34.2529 10.7193 33.9369 10.5393 33.4289 10.5393C32.9195 10.5393 32.5649 10.7193 32.3635 11.0793C32.1609 11.4419 31.9995 12.3166 31.8769 13.7059L30.7942 25.9419C30.6809 27.2233 30.6915 28.0566 30.8262 28.4446C30.9609 28.8339 31.2755 29.0259 31.7715 29.0259C32.2795 29.0259 32.6302 28.8499 32.8249 28.4966C33.0182 28.1419 33.1675 27.3793 33.2715 26.2073L34.3782 13.7059ZM42.7622 15.7473L42.1755 22.3873C41.9595 24.8259 41.6742 26.6139 41.3182 27.7499C40.9635 28.8873 40.3249 29.9499 39.4049 30.9366C38.4822 31.9246 37.3475 32.6526 35.9982 33.1233C34.6502 33.5926 33.1275 33.8286 31.4315 33.8286C29.5369 33.8286 27.9502 33.6259 26.6715 33.2259C25.3929 32.8233 24.4249 32.2179 23.7689 31.4059C23.1129 30.5966 22.6809 29.6166 22.4715 28.4646C22.2622 27.3139 22.2595 25.5873 22.4635 23.2873L23.0782 16.3406C23.3009 13.8206 23.7582 11.8526 24.4489 10.4366C25.1382 9.01928 26.2569 7.88328 27.8035 7.02461C29.3489 6.16728 31.2675 5.73794 33.5569 5.73794C35.4782 5.73794 37.1049 6.01261 38.4342 6.56595C39.7635 7.11795 40.7635 7.83528 41.4342 8.72061C42.1049 9.60595 42.5369 10.5179 42.7289 11.4579C42.9209 12.3979 42.9329 13.8286 42.7622 15.7473Z" fill="white"/>
<path d="M33.4277 10.801C33.0117 10.801 32.7464 10.9303 32.5917 11.209C32.4664 11.433 32.2864 12.0517 32.137 13.7277L31.0544 25.965C30.9184 27.505 30.989 28.117 31.073 28.3583C31.1397 28.5477 31.2784 28.765 31.7704 28.765C32.3157 28.765 32.501 28.5397 32.5944 28.3703C32.7144 28.149 32.885 27.5917 33.009 26.185L34.1157 13.6823C34.2637 12.0063 34.205 11.3877 34.1277 11.1637C34.0744 11.009 33.9437 10.801 33.4277 10.801ZM31.7704 29.289C31.0037 29.289 30.6984 28.877 30.577 28.5317C30.4277 28.1037 30.413 27.249 30.5317 25.9197L31.6144 13.6823C31.741 12.2423 31.9117 11.349 32.133 10.9517C32.305 10.6437 32.6704 10.2757 33.4277 10.2757C34.213 10.2757 34.5117 10.6663 34.625 10.9957C34.7117 11.2503 34.809 11.8117 34.6397 13.7277L33.533 26.2303C33.425 27.449 33.269 28.2317 33.0544 28.621C32.813 29.065 32.3797 29.289 31.7704 29.289V29.289ZM33.5557 5.99967C31.3224 5.99967 29.429 6.42234 27.9304 7.25434C26.4397 8.08234 25.3464 9.19167 24.6837 10.5517C24.0104 11.933 23.5584 13.8877 23.3397 16.3637L22.7237 23.309C22.5237 25.577 22.525 27.2957 22.729 28.4183C22.929 29.5197 23.3464 30.4703 23.973 31.241C24.593 32.0063 25.5264 32.5903 26.7504 32.9743C27.9984 33.3663 29.5717 33.565 31.4304 33.565C33.089 33.565 34.5957 33.333 35.9117 32.8757C37.213 32.421 38.3237 31.709 39.2117 30.7583C40.101 29.8037 40.725 28.7663 41.0677 27.6717C41.4144 26.557 41.6997 24.773 41.913 22.365L42.501 15.725C42.6677 13.8383 42.657 12.421 42.4704 11.5103C42.2877 10.6143 41.8677 9.729 41.2237 8.87967C40.5837 8.03567 39.6117 7.33834 38.333 6.80767C37.0424 6.273 35.4344 5.99967 33.5557 5.99967ZM31.4304 34.0903C29.5197 34.0903 27.8917 33.8837 26.593 33.4757C25.269 33.0597 24.2504 32.4197 23.565 31.5717C22.8824 30.7303 22.4277 29.701 22.2117 28.5117C21.9997 27.3437 21.9957 25.577 22.201 23.2637L22.8157 16.3183C23.0397 13.777 23.5104 11.761 24.2117 10.3223C24.9237 8.86234 26.089 7.67567 27.6757 6.79567C29.253 5.91967 31.2317 5.47567 33.5557 5.47567C35.505 5.47567 37.1784 5.761 38.5344 6.32367C39.8997 6.889 40.945 7.64233 41.6424 8.561C42.3344 9.47567 42.7864 10.433 42.985 11.405C43.185 12.3783 43.197 13.8063 43.0237 15.7717L42.4357 22.4103C42.2197 24.8557 41.9277 26.6783 41.5677 27.829C41.2037 28.997 40.5384 30.105 39.5957 31.1157C38.649 32.1303 37.4677 32.889 36.085 33.3717C34.713 33.8477 33.1477 34.0903 31.4304 34.0903" fill="white"/>
<path d="M54.9894 6.22831L54.3347 9.79365C55.8041 7.24031 57.7267 5.88831 60.1001 5.73898L59.2561 15.279C57.6867 15.279 56.5174 15.4816 55.7454 15.891C54.9747 16.3003 54.4721 16.8683 54.2387 17.5963C54.0041 18.3256 53.7707 20.0043 53.5374 22.6336L52.5907 33.3376H44.0254L46.4241 6.22831H54.9894Z" fill="white"/>
<path d="M44.312 33.0747H52.3493L53.276 22.6093C53.512 19.936 53.7453 18.2707 53.988 17.516C54.2426 16.724 54.792 16.1 55.6226 15.6587C56.3986 15.248 57.5093 15.0373 59.0146 15.0173L59.8106 6.02665C57.6786 6.26665 55.9146 7.57599 54.5613 9.92532L53.8 11.248L54.6733 6.49199H46.664L44.312 33.0747ZM52.8306 33.6013H43.7373L46.184 5.96532H55.3053L54.8306 8.55065C56.2386 6.64132 58 5.60799 60.084 5.47599L60.388 5.45599L59.496 15.5413H59.256C57.7373 15.5413 56.5973 15.7373 55.868 16.1227C55.1533 16.5013 54.7013 17.0093 54.488 17.6773C54.26 18.384 54.0293 20.0587 53.7986 22.656L52.8306 33.6013Z" fill="white"/>
<path d="M72.1001 2.61231L71.7228 6.88164H74.0334L73.6548 11.1723H71.3428L70.0588 25.6763C69.9014 27.4616 69.9081 28.455 70.0814 28.659C70.2534 28.863 71.0401 28.9656 72.4388 28.9656L72.0521 33.3376H68.5974C66.6468 33.3376 65.2614 33.259 64.4401 33.103C63.6201 32.9456 62.9174 32.5843 62.3321 32.0203C61.7454 31.455 61.4068 30.807 61.3161 30.079C61.2254 29.351 61.2988 27.639 61.5374 24.9416L62.7561 11.1723H60.9121L61.2921 6.88164H63.1361L63.5148 2.61231H72.1001Z" fill="white"/>
<path d="M61.1997 10.9093H63.0437L61.7997 24.964C61.5637 27.6293 61.489 29.34 61.577 30.0467C61.661 30.72 61.9677 31.304 62.5143 31.8307C63.061 32.3573 63.725 32.6987 64.4903 32.844C65.2903 32.9973 66.6717 33.0747 68.597 33.0747H71.8117L72.153 29.2267C70.445 29.2093 70.0477 29.0253 69.881 28.828C69.7103 28.6267 69.5823 28.1013 69.7983 25.6547L71.1037 10.9093H73.4143L73.7477 7.14532H71.4357L71.8143 2.87599H63.7557L63.377 7.14532H61.533L61.1997 10.9093ZM72.293 33.6013H68.597C66.6383 33.6013 65.2237 33.52 64.393 33.3613C63.525 33.196 62.7703 32.808 62.1503 32.2093C61.5223 31.604 61.1543 30.8973 61.057 30.1107C60.9623 29.3573 61.0343 27.66 61.277 24.9187L62.4703 11.436H60.625L61.0517 6.61865H62.8957L63.2743 2.34932H72.3877L72.0103 6.61865H74.321L73.8943 11.436H71.5837L70.321 25.7C70.117 28.0067 70.2437 28.424 70.2877 28.496C70.3197 28.5227 70.6103 28.704 72.4397 28.704H72.7277L72.293 33.6013Z" fill="white"/>
<path d="M85.0871 20.447C83.6311 21.415 82.7645 22.2244 82.4871 22.8777C82.2098 23.531 82.0178 24.4724 81.9098 25.6977C81.7845 27.1004 81.8005 28.0057 81.9551 28.415C82.1098 28.823 82.4698 29.027 83.0351 29.027C83.5725 29.027 83.9351 28.867 84.1271 28.547C84.3165 28.227 84.4738 27.3857 84.5938 26.0244L85.0871 20.447ZM82.7031 16.7284H74.6685L74.8285 14.911C75.0138 12.8124 75.4085 11.1964 76.0098 10.059C76.6125 8.9217 77.7085 7.9177 79.2991 7.0457C80.8885 6.17504 82.8911 5.73904 85.3085 5.73904C88.2058 5.73904 90.3445 6.23237 91.7271 7.21904C93.1111 8.2057 93.8871 9.41904 94.0565 10.8564C94.2258 12.2924 94.1125 15.2524 93.7165 19.7324L92.5111 33.3377H84.1805L84.3938 30.9217C83.7845 31.891 83.0458 32.6177 82.1765 33.1017C81.3071 33.5857 80.2991 33.8284 79.1538 33.8284C77.6551 33.8284 76.3178 33.4217 75.1378 32.6124C73.9591 31.803 73.4911 30.0284 73.7325 27.291L73.9298 25.0644C74.1098 23.0337 74.5631 21.6524 75.2938 20.9177C76.0231 20.1817 77.7458 19.323 80.4605 18.343C83.3671 17.2804 84.9365 16.5657 85.1671 16.1977C85.3978 15.8297 85.5618 15.0817 85.6618 13.951C85.7871 12.5337 85.7591 11.611 85.5791 11.183C85.3978 10.7524 85.0538 10.539 84.5445 10.539C83.9645 10.539 83.5871 10.719 83.4151 11.0804C83.2418 11.4417 83.0885 12.3777 82.9538 13.8897L82.7031 16.7284Z" fill="white"/>
<path d="M84.7765 20.977C83.6431 21.7743 82.9551 22.4463 82.7285 22.981C82.4645 23.605 82.2765 24.5263 82.1711 25.721C82.0218 27.4103 82.1045 28.0677 82.2005 28.321C82.2725 28.5103 82.4378 28.765 83.0338 28.765C83.4765 28.765 83.7605 28.649 83.9018 28.4117C84.0178 28.217 84.1871 27.6397 84.3325 26.001L84.7765 20.977ZM83.0338 29.289C82.1845 29.289 81.8445 28.8637 81.7098 28.5063C81.5391 28.0583 81.5191 27.1303 81.6471 25.673C81.7578 24.4263 81.9591 23.4503 82.2458 22.7757C82.5458 22.0663 83.4271 21.233 84.9418 20.2277L85.3965 19.9263L84.8551 26.0477C84.6885 27.9317 84.4885 28.4517 84.3525 28.681C84.1111 29.085 83.6671 29.289 83.0338 29.289V29.289ZM84.5445 10.277C85.1578 10.277 85.5991 10.5543 85.8205 11.0797C86.0205 11.5543 86.0538 12.501 85.9231 13.973C85.8191 15.1583 85.6431 15.9303 85.3885 16.3383C85.2058 16.629 84.4911 17.149 80.5511 18.589C77.8845 19.553 76.1778 20.397 75.4791 21.1023C74.7978 21.789 74.3645 23.129 74.1911 25.0863L73.9938 27.3143C73.7618 29.937 74.1965 31.6477 75.2871 32.3957C76.4165 33.1717 77.7178 33.565 79.1538 33.565C80.2485 33.565 81.2218 33.333 82.0485 32.8717C82.8751 32.4117 83.5885 31.709 84.1711 30.7823L84.7511 29.8583L84.4671 33.0743H92.2711L93.4538 19.709C93.8471 15.2663 93.9618 12.2983 93.7951 10.8863C93.6351 9.533 92.8885 8.37033 91.5751 7.433C90.2445 6.48233 88.1365 6.001 85.3085 6.001C82.9471 6.001 80.9685 6.43033 79.4245 7.277C77.8885 8.11833 76.8178 9.097 76.2431 10.181C75.6591 11.2823 75.2711 12.8823 75.0898 14.9343L74.9538 16.4663H82.4631L82.6925 13.8663C82.8311 12.309 82.9885 11.361 83.1778 10.9663C83.3978 10.5077 83.8578 10.277 84.5445 10.277V10.277ZM79.1538 34.0903C77.6098 34.0903 76.2085 33.6663 74.9898 32.829C73.7311 31.965 73.2205 30.0943 73.4711 27.2677L73.6685 25.041C73.8551 22.929 74.3258 21.5197 75.1071 20.7317C75.8711 19.961 77.5925 19.0997 80.3725 18.0957C84.2298 16.685 84.8551 16.201 84.9431 16.0597C85.0858 15.8317 85.2805 15.2783 85.4005 13.9277C85.5511 12.2263 85.4485 11.5517 85.3365 11.2837C85.1978 10.9543 84.9458 10.801 84.5445 10.801C83.8391 10.801 83.6978 11.097 83.6511 11.1943C83.5418 11.421 83.3778 12.0783 83.2165 13.9117L82.9431 16.9917H74.3805L74.5671 14.8877C74.7538 12.7663 75.1618 11.0997 75.7778 9.93567C76.4018 8.75833 77.5445 7.709 79.1725 6.81567C80.7938 5.92633 82.8578 5.47567 85.3085 5.47567C88.2485 5.47567 90.4591 5.99033 91.8805 7.005C93.3191 8.033 94.1391 9.31833 94.3165 10.825C94.4898 12.2917 94.3791 15.2143 93.9765 19.7543L92.7511 33.601H83.8925L84.0485 31.853C83.5365 32.4743 82.9525 32.969 82.3045 33.3317C81.3978 33.8357 80.3378 34.0903 79.1538 34.0903" fill="white"/>
<path d="M107.206 0.26347L104.279 33.3381H95.459L98.387 0.26347H107.206Z" fill="white"/>
<path d="M95.7456 33.0747H104.038L106.918 0.526651H98.6269L95.7456 33.0747ZM104.519 33.6013H95.1709L98.1456 -1.62602e-05H107.492L104.519 33.6013Z" fill="white"/>
<path d="M47.801 50.016H39.685L39.9584 46.876C40.0544 45.7813 40.0264 45.0386 39.877 44.6493C39.725 44.2586 39.4024 44.064 38.905 44.064C38.4077 44.064 38.0584 44.2346 37.8584 44.5773C37.6584 44.92 37.5064 45.6853 37.4024 46.876L36.281 59.7226C36.1957 60.6946 36.2597 61.4226 36.473 61.9093C36.6864 62.3946 37.0424 62.6373 37.5384 62.6373C38.121 62.6373 38.537 62.384 38.7877 61.8773C39.037 61.372 39.2237 60.4133 39.3477 59.004L39.6304 55.7626H47.2997C47.0957 57.9373 46.8704 59.5693 46.6264 60.656C46.3824 61.744 45.809 62.86 44.9077 64.0013C44.005 65.1453 42.8824 66.0066 41.5397 66.588C40.1957 67.1693 38.573 67.46 36.6704 67.46C34.2424 67.46 32.353 67.0586 31.0024 66.26C29.6517 65.4586 28.745 64.3373 28.2824 62.8933C27.8184 61.4506 27.7024 59.4013 27.9344 56.7466L28.6104 49.0093C28.8117 46.6986 29.205 44.9533 29.7917 43.776C30.377 42.6 31.4984 41.5493 33.1557 40.6266C34.8117 39.7026 36.7704 39.2413 39.0277 39.2413C41.2717 39.2413 43.149 39.7 44.6597 40.616C46.169 41.5333 47.1264 42.6893 47.5304 44.0853C47.9344 45.48 48.0237 47.4573 47.801 50.016Z" fill="white"/>
<path d="M39.0279 39.5042C36.8266 39.5042 34.8932 39.9589 33.2826 40.8562C31.6812 41.7496 30.5852 42.7709 30.0266 43.8936C29.4586 45.0349 29.0706 46.7642 28.8719 49.0322L28.1959 56.7696C27.9692 59.3762 28.0826 61.4109 28.5319 62.8122C28.9732 64.1869 29.8492 65.2696 31.1372 66.0322C32.4399 66.8056 34.3012 67.1976 36.6706 67.1976C38.5279 67.1976 40.1319 66.9109 41.4359 66.3469C42.7319 65.7856 43.8319 64.9416 44.7012 63.8389C45.5746 62.7336 46.1372 61.6429 46.3706 60.5989C46.6012 59.5749 46.8159 58.0362 47.0106 56.0256H39.8706L39.6092 59.0282C39.4812 60.4829 39.2906 61.4536 39.0239 61.9936C38.7306 62.5869 38.2172 62.9002 37.5386 62.9002C36.9399 62.9002 36.4879 62.5936 36.2332 62.0136C35.9999 61.4816 35.9306 60.7256 36.0199 59.6989L37.1412 46.8536C37.2492 45.6122 37.4106 44.8242 37.6319 44.4442C37.8826 44.0176 38.3106 43.8016 38.9052 43.8016C39.6692 43.8016 39.9892 44.2096 40.1212 44.5536C40.2879 44.9856 40.3212 45.7536 40.2212 46.8989L39.9719 49.7536H47.5599C47.7519 47.3549 47.6586 45.4722 47.2786 44.1562C46.8959 42.8336 45.9692 41.7176 44.5239 40.8402C43.0612 39.9536 41.2119 39.5042 39.0279 39.5042ZM36.6706 67.7229C34.2052 67.7229 32.2532 67.3069 30.8692 66.4842C29.4679 65.6549 28.5132 64.4736 28.0319 62.9749C27.5599 61.5042 27.4399 59.4016 27.6732 56.7242L28.3492 48.9869C28.5532 46.6522 28.9586 44.8602 29.5559 43.6589C30.1639 42.4402 31.3306 41.3429 33.0279 40.3976C34.7172 39.4562 36.7359 38.9776 39.0279 38.9776C41.3092 38.9776 43.2506 39.4536 44.7959 40.3922C46.3572 41.3402 47.3626 42.5576 47.7826 44.0109C48.1946 45.4322 48.2879 47.4602 48.0626 50.0376L48.0426 50.2776H39.3986L39.6972 46.8536C39.8119 45.5456 39.7239 44.9842 39.6319 44.7442C39.5626 44.5642 39.4119 44.3256 38.9052 44.3256C38.5052 44.3256 38.2372 44.4522 38.0852 44.7096C37.9626 44.9202 37.7892 45.4722 37.6652 46.8989L36.5426 59.7456C36.4626 60.6682 36.5199 61.3602 36.7146 61.8042C36.8852 62.1936 37.1479 62.3736 37.5386 62.3736C38.0239 62.3736 38.3452 62.1802 38.5519 61.7616C38.7866 61.2869 38.9666 60.3522 39.0852 58.9816L39.3892 55.4989H47.5879L47.5612 55.7869C47.3572 57.9616 47.1292 59.6202 46.8839 60.7136C46.6319 61.8349 46.0359 62.9962 45.1132 64.1642C44.1892 65.3362 43.0212 66.2322 41.6439 66.8282C40.2746 67.4216 38.6012 67.7229 36.6706 67.7229" fill="white"/>
<path d="M60.4244 54.0173C58.9618 54.9893 58.0924 55.8026 57.8151 56.46C57.5364 57.116 57.3444 58.06 57.2378 59.292C57.1151 60.7013 57.1311 61.6106 57.2871 62.0213C57.4431 62.432 57.8044 62.6373 58.3724 62.6373C58.9124 62.6373 59.2778 62.4773 59.4698 62.156C59.6604 61.8333 59.8164 60.9893 59.9351 59.62L60.4244 54.0173ZM58.0244 50.2813H49.9511L50.1098 48.456C50.2938 46.3493 50.6884 44.724 51.2911 43.5813C51.8964 42.4386 52.9951 41.4306 54.5911 40.5546C56.1871 39.6786 58.2004 39.2413 60.6284 39.2413C63.5391 39.2413 65.6898 39.7373 67.0804 40.7293C68.4711 41.7213 69.2524 42.9386 69.4244 44.3813C69.5964 45.8253 69.4858 48.7986 69.0938 53.3L67.9004 66.968H59.5284L59.7404 64.5413C59.1298 65.5133 58.3884 66.244 57.5151 66.7293C56.6418 67.216 55.6298 67.46 54.4804 67.46C52.9738 67.46 51.6284 67.052 50.4431 66.2386C49.2578 65.4253 48.7844 63.6426 49.0244 60.892L49.2191 58.656C49.3978 56.6173 49.8524 55.228 50.5844 54.4893C51.3164 53.7506 53.0458 52.888 55.7738 51.904C58.6924 50.836 60.2684 50.1186 60.4991 49.7493C60.7298 49.3786 60.8951 48.6266 60.9951 47.4906C61.1191 46.068 61.0898 45.1413 60.9071 44.7106C60.7244 44.2786 60.3778 44.064 59.8671 44.064C59.2844 44.064 58.9058 44.2453 58.7324 44.608C58.5591 44.9706 58.4058 45.9106 58.2738 47.4306L58.0244 50.2813Z" fill="white"/>
<path d="M60.1146 54.5471C58.9759 55.3485 58.2839 56.0245 58.0573 56.5618C57.7919 57.1885 57.6039 58.1165 57.4999 59.3138C57.3506 61.0125 57.4359 61.6725 57.5319 61.9285C57.6053 62.1205 57.7719 62.3738 58.3733 62.3738C58.8173 62.3738 59.1013 62.2578 59.2439 62.0191C59.3613 61.8245 59.5306 61.2431 59.6733 59.5965L60.1146 54.5471ZM58.3733 62.9005C57.5199 62.9005 57.1773 62.4725 57.0413 62.1151C56.8693 61.6618 56.8479 60.7325 56.9759 59.2685C57.0853 58.0151 57.2866 57.0351 57.5733 56.3565C57.8733 55.6458 58.7586 54.8085 60.2799 53.7978L60.7333 53.4965L60.1973 59.6418C60.0319 61.5365 59.8319 62.0605 59.6946 62.2898C59.4533 62.6938 59.0093 62.9005 58.3733 62.9005ZM59.8666 43.8005C60.4813 43.8005 60.9253 44.0791 61.1493 44.6085C61.3506 45.0831 61.3853 46.0338 61.2559 47.5151C61.1519 48.7018 60.9773 49.4778 60.7226 49.8885C60.5386 50.1818 59.8199 50.7031 55.8639 52.1498C53.1853 53.1178 51.4719 53.9658 50.7706 54.6751C50.0866 55.3645 49.6533 56.7125 49.4813 58.6791L49.2853 60.9151C49.0559 63.5511 49.4946 65.2698 50.5906 66.0218C51.7279 66.8018 53.0359 67.1965 54.4799 67.1965C55.5786 67.1965 56.5573 66.9631 57.3866 66.5005C58.2173 66.0378 58.9346 65.3325 59.5186 64.4018L60.0959 63.4778L59.8146 66.7045H67.6599L68.8319 53.2765C69.2213 48.8125 69.3333 45.8311 69.1639 44.4125C69.0013 43.0538 68.2493 41.8858 66.9279 40.9431C65.5893 39.9885 63.4706 39.5045 60.6279 39.5045C58.2559 39.5045 56.2679 39.9351 54.7186 40.7858C53.1746 41.6311 52.0999 42.6138 51.5239 43.7045C50.9399 44.8098 50.5519 46.4151 50.3719 48.4778L50.2373 50.0191H57.7839L58.0119 47.4071C58.1479 45.8418 58.3066 44.8885 58.4959 44.4938C58.7159 44.0338 59.1773 43.8005 59.8666 43.8005V43.8005ZM54.4799 67.7231C52.9279 67.7231 51.5199 67.2965 50.2946 66.4551C49.0306 65.5871 48.5146 63.7085 48.7626 60.8698L48.9573 58.6325C49.1426 56.5125 49.6146 55.0951 50.3973 54.3045C51.1653 53.5298 52.8933 52.6645 55.6839 51.6565C59.5586 50.2405 60.1866 49.7525 60.2773 49.6098C60.4199 49.3805 60.6146 48.8245 60.7333 47.4685C60.8826 45.7578 60.7786 45.0791 60.6653 44.8125C60.5253 44.4805 60.2706 44.3258 59.8666 44.3258C59.1586 44.3258 59.0159 44.6245 58.9693 44.7218C58.8599 44.9498 58.6959 45.6085 58.5346 47.4525L58.2653 50.5445H49.6639L49.8479 48.4325C50.0346 46.2991 50.4426 44.6271 51.0599 43.4591C51.6853 42.2765 52.8306 41.2218 54.4653 40.3245C56.0933 39.4311 58.1666 38.9778 60.6279 38.9778C63.5826 38.9778 65.8039 39.4951 67.2333 40.5151C68.6799 41.5471 69.5039 42.8378 69.6853 44.3511C69.8599 45.8045 69.7479 48.8231 69.3559 53.3218L68.1413 67.2298H59.2426L59.3946 65.4711C58.8826 66.0978 58.2959 66.5965 57.6426 66.9605C56.7333 67.4645 55.6706 67.7231 54.4799 67.7231" fill="white"/>
<path d="M82.6301 36.1006L82.2554 40.3913H84.5767L84.2021 44.6993H81.8794L80.6074 59.2713C80.4501 61.0646 80.4594 62.0633 80.6327 62.2673C80.8074 62.4726 81.5967 62.5753 83.0021 62.5753L82.6194 66.9673H79.1474C77.1874 66.9673 75.7954 66.8886 74.9714 66.7313C74.1474 66.574 73.4394 66.2113 72.8514 65.6433C72.2607 65.0753 71.9207 64.426 71.8274 63.694C71.7354 62.962 71.8074 61.2406 72.0447 58.5326L73.2514 44.6993H71.3994L71.7741 40.3913H73.6287L74.0021 36.1006H82.6301Z" fill="white"/>
<path d="M71.6856 44.438H73.539L72.307 58.5553C72.0736 61.234 72.0003 62.9513 72.0896 63.662C72.1736 64.3286 72.491 64.9326 73.0336 65.4553C73.583 65.9833 74.2523 66.326 75.0216 66.4726C75.8243 66.6273 77.2136 66.7046 79.1483 66.7046H82.3803L82.7163 62.8366C81.0003 62.818 80.6016 62.634 80.4336 62.438C80.2616 62.234 80.131 61.706 80.347 59.2473L81.639 44.438H83.9616L84.2923 40.6526H81.9696L82.3443 36.3633H74.2443L73.8696 40.6526H72.0163L71.6856 44.438ZM82.8603 67.23H79.1483C77.1803 67.23 75.759 67.1486 74.923 66.9886C74.0523 66.8233 73.2936 66.434 72.6696 65.8326C72.039 65.226 71.6683 64.5166 71.5683 63.7273C71.4723 62.9686 71.543 61.262 71.783 58.51L72.9656 44.9633H71.1123L71.535 40.1286H73.3883L73.763 35.8393H82.9176L82.543 40.1286H84.8656L84.443 44.9633H82.1216L80.8696 59.2953C80.667 61.614 80.795 62.0313 80.839 62.1046C80.871 62.1313 81.163 62.3126 83.003 62.3126H83.2896L82.8603 67.23Z" fill="white"/>
<path d="M95.7008 54.0173C94.2381 54.9893 93.3688 55.8026 93.0901 56.46C92.8128 57.116 92.6208 58.06 92.5141 59.292C92.3915 60.7013 92.4075 61.6106 92.5635 62.0213C92.7195 62.432 93.0808 62.6373 93.6488 62.6373C94.1888 62.6373 94.5541 62.4773 94.7461 62.156C94.9368 61.8333 95.0915 60.9893 95.2115 59.62L95.7008 54.0173ZM93.3008 50.2813H85.2275L85.3861 48.456C85.5701 46.3493 85.9648 44.724 86.5675 43.5813C87.1715 42.4386 88.2715 41.4306 89.8675 40.5546C91.4635 39.6786 93.4755 39.2413 95.9048 39.2413C98.8155 39.2413 100.966 39.7373 102.357 40.7293C103.747 41.7213 104.529 42.9386 104.701 44.3813C104.873 45.8253 104.762 48.7986 104.369 53.3L103.175 66.968H94.8048L95.0168 64.5413C94.4061 65.5133 93.6635 66.244 92.7901 66.7293C91.9181 67.216 90.9061 67.46 89.7555 67.46C88.2501 67.46 86.9048 67.052 85.7195 66.2386C84.5341 65.4253 84.0608 63.6426 84.3008 60.892L84.4955 58.656C84.6728 56.6173 85.1288 55.228 85.8608 54.4893C86.5928 53.7506 88.3221 52.888 91.0501 51.904C93.9688 50.836 95.5435 50.1186 95.7755 49.7493C96.0061 49.3786 96.1715 48.6266 96.2701 47.4906C96.3955 46.068 96.3661 45.1413 96.1835 44.7106C96.0008 44.2786 95.6541 44.064 95.1421 44.064C94.5608 44.064 94.1821 44.2453 94.0088 44.608C93.8355 44.9706 93.6821 45.9106 93.5488 47.4306L93.3008 50.2813Z" fill="white"/>
<path d="M95.391 54.5471C94.2523 55.3485 93.559 56.0245 93.3336 56.5618C93.067 57.1898 92.8803 58.1165 92.775 59.3138C92.627 61.0125 92.7123 61.6725 92.8083 61.9271C92.8816 62.1205 93.0483 62.3738 93.6483 62.3738C94.0923 62.3738 94.3776 62.2578 94.5203 62.0191C94.615 61.8591 94.799 61.3298 94.9496 59.5965L95.391 54.5471ZM93.6483 62.9005C92.795 62.9005 92.4536 62.4725 92.3176 62.1151C92.1456 61.6618 92.1243 60.7311 92.2523 59.2685C92.3616 58.0165 92.5616 57.0351 92.8496 56.3565C93.1496 55.6458 94.035 54.8085 95.5563 53.7978L96.0096 53.4965L95.4736 59.6418C95.3083 61.5338 95.1083 62.0591 94.971 62.2898C94.7296 62.6938 94.2843 62.9005 93.6483 62.9005ZM95.1416 43.8005C95.7576 43.8005 96.2003 44.0791 96.4243 44.6071C96.6256 45.0818 96.6616 46.0325 96.5323 47.5151C96.4283 48.7018 96.2536 49.4778 95.999 49.8885C95.815 50.1818 95.0963 50.7031 91.1403 52.1498C88.4603 53.1178 86.7483 53.9658 86.047 54.6751C85.363 55.3645 84.9296 56.7125 84.7576 58.6791L84.5616 60.9151C84.3323 63.5511 84.771 65.2698 85.867 66.0218C87.003 66.8018 88.3123 67.1965 89.755 67.1965C90.855 67.1965 91.8336 66.9631 92.663 66.5005C93.4923 66.0378 94.2096 65.3325 94.795 64.4018L95.3723 63.4791L95.091 66.7045H102.936L104.108 53.2765C104.498 48.8125 104.61 45.8311 104.44 44.4125C104.278 43.0538 103.526 41.8858 102.204 40.9431C100.866 39.9885 98.7456 39.5045 95.9043 39.5045C93.5323 39.5045 91.5443 39.9351 89.9936 40.7858C88.451 41.6311 87.3763 42.6138 86.8003 43.7045C86.2163 44.8098 85.8283 46.4165 85.6483 48.4778L85.5136 50.0191H93.059L93.287 47.4071C93.4243 45.8418 93.583 44.8885 93.7723 44.4938C93.9923 44.0338 94.4536 43.8005 95.1416 43.8005V43.8005ZM89.755 67.7231C88.2043 67.7231 86.7963 67.2965 85.5696 66.4551C84.307 65.5871 83.791 63.7085 84.039 60.8698L84.2336 58.6325C84.419 56.5111 84.891 55.0951 85.6736 54.3045C86.4403 53.5311 88.1696 52.6645 90.9603 51.6565C94.835 50.2405 95.463 49.7525 95.5536 49.6098C95.6963 49.3805 95.891 48.8231 96.0083 47.4685C96.159 45.7565 96.055 45.0791 95.9416 44.8125C95.8003 44.4805 95.547 44.3258 95.1416 44.3258C94.435 44.3258 94.2923 44.6245 94.2456 44.7218C94.1363 44.9498 93.9723 45.6085 93.811 47.4525L93.5416 50.5445H84.9403L85.1243 48.4325C85.311 46.3005 85.719 44.6271 86.3363 43.4591C86.9616 42.2765 88.107 41.2218 89.7416 40.3245C91.3696 39.4311 93.4443 38.9778 95.9043 38.9778C98.8576 38.9778 101.08 39.4951 102.51 40.5151C103.956 41.5485 104.782 42.8391 104.962 44.3511C105.138 45.8245 105.03 48.7591 104.631 53.3218L103.418 67.2298H94.519L94.671 65.4711C94.159 66.0965 93.571 66.5951 92.919 66.9605C92.0096 67.4645 90.9456 67.7231 89.755 67.7231" fill="white"/>
<path d="M119.667 29.3233L116.381 66.9673H106.341L109.627 29.3233H119.667Z" fill="white"/>
<path d="M106.628 66.7049H116.141L119.381 29.5862H109.868L106.628 66.7049ZM116.623 67.2302H106.055L109.387 29.0609H119.955L116.623 67.2302Z" fill="white"/>
<path d="M131.913 52.2958C130.256 53.3958 129.272 54.3185 128.956 55.0625C128.641 55.8065 128.424 56.8771 128.303 58.2705C128.163 59.8678 128.181 60.8985 128.359 61.3638C128.535 61.8278 128.944 62.0611 129.588 62.0611C130.2 62.0611 130.615 61.8785 130.831 61.5145C131.048 61.1518 131.224 60.1931 131.359 58.6438L131.913 52.2958ZM142.969 29.6132C142.092 31.1838 141.087 32.2785 139.956 32.9012C138.824 33.5238 137.849 33.8331 137.028 33.8331C135.887 33.8331 134.68 33.5785 133.407 33.0665L131.68 32.3918C130.577 31.9425 129.745 31.7171 129.183 31.7171C127.993 31.7171 126.944 32.4931 126.037 34.0438L122.425 31.5905C124.456 28.5905 126.58 27.0918 128.8 27.0918C129.957 27.0918 131.197 27.3385 132.521 27.8345L133.969 28.3705C135.184 28.8198 136.017 29.0451 136.468 29.0451C137.803 29.0451 138.747 28.3465 139.303 26.9505L142.969 29.6132ZM129.193 48.0638H120.047L120.227 45.9931C120.436 43.6065 120.881 41.7665 121.565 40.4718C122.251 39.1771 123.496 38.0345 125.304 37.0425C127.112 36.0505 129.393 35.5545 132.144 35.5545C135.441 35.5545 137.879 36.1158 139.455 37.2398C141.029 38.3638 141.915 39.7438 142.109 41.3785C142.305 43.0145 142.18 46.3811 141.735 51.4825L140.383 66.9678H130.899L131.137 64.2171C130.447 65.3211 129.607 66.1478 128.616 66.6985C127.627 67.2505 126.481 67.5251 125.177 67.5251C123.472 67.5251 121.948 67.0638 120.604 66.1425C119.26 65.2198 118.725 63.2011 118.997 60.0851L119.219 57.5491C119.42 55.2411 119.935 53.6665 120.765 52.8291C121.593 51.9931 123.553 51.0171 126.644 49.8998C129.951 48.6918 131.736 47.8785 131.997 47.4585C132.259 47.0411 132.447 46.1878 132.559 44.9011C132.7 43.2891 132.667 42.2385 132.46 41.7505C132.252 41.2625 131.86 41.0185 131.281 41.0185C130.621 41.0185 130.192 41.2238 129.997 41.6345C129.8 42.0465 129.627 43.1105 129.476 44.8318L129.193 48.0638Z" fill="white"/>
<path d="M122.792 31.5212L125.957 33.6705C126.878 32.1998 127.962 31.4545 129.182 31.4545C129.785 31.4545 130.634 31.6825 131.78 32.1492L133.502 32.8225C134.741 33.3198 135.928 33.5705 137.029 33.5705C137.801 33.5705 138.742 33.2692 139.829 32.6705C140.864 32.1038 141.802 31.1012 142.624 29.6878L139.413 27.3558C138.801 28.6518 137.812 29.3065 136.468 29.3065C135.981 29.3065 135.134 29.0812 133.878 28.6158L132.43 28.0812C131.142 27.5985 129.921 27.3532 128.8 27.3532C126.737 27.3532 124.717 28.7558 122.792 31.5212ZM126.122 34.4185L122.062 31.6598L122.209 31.4425C124.281 28.3812 126.5 26.8278 128.8 26.8278C129.985 26.8278 131.266 27.0838 132.614 27.5892L134.061 28.1225C135.53 28.6665 136.181 28.7812 136.468 28.7812C137.694 28.7812 138.542 28.1518 139.06 26.8545L139.184 26.5412L143.312 29.5385L143.198 29.7412C142.301 31.3478 141.253 32.4892 140.082 33.1305C138.917 33.7718 137.89 34.0972 137.029 34.0972C135.86 34.0972 134.608 33.8318 133.309 33.3105L131.585 32.6372C130.516 32.2012 129.708 31.9812 129.182 31.9812C128.098 31.9812 127.116 32.7185 126.264 34.1758L126.122 34.4185ZM131.604 52.8252C130.27 53.7545 129.462 54.5412 129.198 55.1638C128.897 55.8785 128.684 56.9318 128.565 58.2945C128.396 60.2252 128.493 60.9785 128.604 61.2705C128.69 61.4972 128.886 61.7985 129.589 61.7985C130.105 61.7985 130.438 61.6612 130.605 61.3812C130.74 61.1545 130.934 60.4932 131.097 58.6198L131.604 52.8252ZM129.589 62.3252C128.641 62.3252 128.264 61.8532 128.113 61.4572C127.921 60.9505 127.897 59.9012 128.041 58.2478C128.165 56.8305 128.392 55.7238 128.714 54.9598C129.053 54.1598 130.052 53.2172 131.768 52.0772L132.222 51.7745L131.621 58.6652C131.434 60.8038 131.209 61.3918 131.057 61.6492C130.79 62.0972 130.296 62.3252 129.589 62.3252V62.3252ZM131.281 40.7558C131.962 40.7558 132.454 41.0638 132.702 41.6492C132.928 42.1812 132.966 43.2532 132.82 44.9252C132.704 46.2652 132.508 47.1398 132.221 47.5985C132.014 47.9265 131.206 48.5118 126.734 50.1478C123.694 51.2452 121.749 52.2105 120.952 53.0145C120.17 53.8025 119.676 55.3358 119.48 57.5732L119.26 60.1065C118.997 63.1078 119.5 65.0652 120.753 65.9252C122.046 66.8132 123.534 67.2625 125.178 67.2625C126.43 67.2625 127.544 66.9945 128.489 66.4692C129.434 65.9412 130.252 65.1385 130.916 64.0785L131.494 63.1572L131.184 66.7052H140.142L141.473 51.4585C141.914 46.3985 142.041 43.0185 141.849 41.4105C141.665 39.8598 140.808 38.5292 139.302 37.4532C137.78 36.3678 135.372 35.8172 132.145 35.8172C129.45 35.8172 127.192 36.3065 125.43 37.2718C123.677 38.2345 122.456 39.3532 121.798 40.5958C121.134 41.8505 120.694 43.6745 120.489 46.0172L120.333 47.8012H128.953L129.214 44.8092C129.369 43.0398 129.548 41.9638 129.76 41.5212C130.002 41.0132 130.514 40.7558 131.281 40.7558V40.7558ZM125.178 67.7878C123.426 67.7878 121.838 67.3078 120.456 66.3585C119.034 65.3825 118.456 63.2652 118.736 60.0612L118.957 57.5278C119.166 55.1318 119.697 53.5358 120.578 52.6452C121.444 51.7718 123.398 50.7932 126.554 49.6545C130.954 48.0452 131.672 47.4865 131.776 47.3198C131.938 47.0572 132.162 46.4212 132.297 44.8798C132.468 42.9345 132.348 42.1598 132.218 41.8532C132.053 41.4625 131.754 41.2812 131.281 41.2812C130.726 41.2812 130.384 41.4345 130.234 41.7478C130.108 42.0092 129.921 42.7598 129.737 44.8545L129.434 48.3265H119.761L119.966 45.9718C120.177 43.5585 120.637 41.6665 121.334 40.3492C122.04 39.0145 123.333 37.8252 125.178 36.8118C127.017 35.8038 129.361 35.2918 132.145 35.2918C135.482 35.2918 137.993 35.8758 139.608 37.0265C141.238 38.1905 142.168 39.6452 142.372 41.3478C142.568 42.9918 142.441 46.4092 141.997 51.5038L140.624 67.2292H130.612L130.792 65.1612C130.197 65.9092 129.512 66.4998 128.744 66.9278C127.72 67.4985 126.52 67.7878 125.178 67.7878Z" fill="white"/>
<path d="M157.997 44.6227C158.136 43.0414 158.133 42.0454 157.992 41.6347C157.85 41.2241 157.49 41.0187 156.912 41.0187C156.332 41.0187 155.928 41.2241 155.698 41.6347C155.47 42.0454 155.286 43.0414 155.149 44.6227L153.933 58.5494C153.805 60.0067 153.82 60.9574 153.973 61.3987C154.129 61.8401 154.488 62.0614 155.05 62.0614C155.63 62.0614 156.029 61.8601 156.249 61.4561C156.469 61.0534 156.637 60.1854 156.754 58.8521L157.997 44.6227ZM167.544 46.9481L166.885 54.5041C166.642 57.2787 166.32 59.3147 165.917 60.6081C165.514 61.9027 164.789 63.1107 163.742 64.2347C162.694 65.3601 161.404 66.1881 159.868 66.7227C158.333 67.2587 156.601 67.5254 154.67 67.5254C152.514 67.5254 150.708 67.2961 149.25 66.8387C147.794 66.3814 146.692 65.6921 145.944 64.7694C145.196 63.8481 144.702 62.7321 144.462 61.4227C144.222 60.1121 144.217 58.1481 144.446 55.5281L145.136 47.6214C145.386 44.7547 145.904 42.5147 146.689 40.9027C147.472 39.2907 148.744 37.9961 150.502 37.0201C152.261 36.0427 154.444 35.5547 157.052 35.5547C159.238 35.5547 161.09 35.8694 162.604 36.4961C164.118 37.1241 165.257 37.9414 166.022 38.9494C166.786 39.9574 167.28 40.9947 167.5 42.0654C167.72 43.1347 167.734 44.7614 167.544 46.9481Z" fill="white"/>
<path d="M156.912 41.2817C156.43 41.2817 156.109 41.439 155.929 41.763C155.785 42.0217 155.578 42.731 155.41 44.6443L154.194 58.5737C154.041 60.3337 154.125 61.0337 154.221 61.311C154.294 61.5217 154.461 61.799 155.05 61.799C155.53 61.799 155.848 61.6457 156.02 61.331C156.158 61.0777 156.353 60.4363 156.493 58.8297L157.736 44.599C157.902 42.6857 157.832 41.9763 157.744 41.7203C157.678 41.531 157.522 41.2817 156.912 41.2817ZM155.05 62.3243C154.198 62.3243 153.86 61.867 153.725 61.4857C153.557 61.0043 153.54 60.0363 153.672 58.5283L154.888 44.599C155.03 42.967 155.22 41.955 155.469 41.507C155.748 41.0083 156.233 40.755 156.912 40.755C157.784 40.755 158.116 41.1883 158.241 41.5483C158.396 42.0003 158.401 43.0123 158.258 44.6443L157.016 58.875C156.896 60.2563 156.72 61.143 156.48 61.583C156.212 62.075 155.73 62.3243 155.05 62.3243V62.3243ZM157.05 35.8163C154.501 35.8163 152.341 36.299 150.63 37.2497C148.928 38.195 147.681 39.463 146.925 41.0177C146.158 42.5923 145.644 44.8217 145.398 47.6443L144.708 55.5497C144.482 58.135 144.486 60.0937 144.721 61.3737C144.952 62.635 145.432 63.7217 146.148 64.6043C146.86 65.4817 147.93 66.1497 149.329 66.5883C150.754 67.035 152.55 67.2617 154.67 67.2617C156.562 67.2617 158.282 66.9977 159.782 66.4763C161.27 65.9563 162.537 65.143 163.55 64.0563C164.565 62.967 165.277 61.7803 165.666 60.531C166.061 59.2577 166.384 57.223 166.622 54.4817L167.282 46.9243C167.47 44.7737 167.457 43.1563 167.242 42.1177C167.032 41.0923 166.55 40.0817 165.813 39.1083C165.08 38.143 163.966 37.3457 162.502 36.739C161.028 36.127 159.194 35.8163 157.05 35.8163V35.8163ZM154.67 67.7883C152.497 67.7883 150.648 67.5537 149.172 67.0897C147.673 66.619 146.518 65.895 145.741 64.935C144.968 63.983 144.45 62.8163 144.204 61.4697C143.961 60.143 143.954 58.1363 144.185 55.5043L144.874 47.599C145.126 44.7123 145.657 42.4203 146.453 40.787C147.257 39.1337 148.577 37.7883 150.376 36.7897C152.165 35.7963 154.412 35.2923 157.05 35.2923C159.264 35.2923 161.165 35.615 162.704 36.2537C164.254 36.8963 165.441 37.751 166.232 38.791C167.017 39.8257 167.53 40.911 167.757 42.0123C167.981 43.1003 167.998 44.7683 167.805 46.971L167.146 54.5283C166.904 57.307 166.574 59.379 166.168 60.687C165.756 62.0123 165.004 63.2657 163.934 64.415C162.862 65.5643 161.524 66.4243 159.954 66.9723C158.4 67.5137 156.621 67.7883 154.67 67.7883" fill="white"/>
</svg>
